# xmcd CD database file
#
# Track frame offsets:
#	150
#	13487
#	36655
#	51675
#	66357
#	87947
#	101625
#	115750
#	133850
#	150125
#	165200
#	178512
#	193425
#	213537
#	229935
#	244080
#
# Disc length: 3621 seconds
#
# Revision: 55
# Processed by: cddbd v1.4PL0 Copyright (c) Steve Scherf et al.
# Submitted via: CDex 1.50Beta7
#
DISCID=ea0e2310
DTITLE=Eric Clapton - From The Cradle
DYEAR=1994
DGENRE=Rock
TTITLE0=Blues Before Sunrise
TTITLE1=Third Degree
TTITLE2=Reconsider Baby
TTITLE3=Hoochie Coochie Man
TTITLE4=Five Long Years
TTITLE5=I'm Tore Down
TTITLE6=How Long Blues
TTITLE7=Goin' Away Baby
TTITLE8=Blues Leave Me Alone
TTITLE9=Sinner's Prayer
TTITLE10=Motherless Child
TTITLE11=It Hurts Me Too
TTITLE12=Someday After A While
TTITLE13=Standin' Round Crying
TTITLE14=Driftin'
TTITLE15=Groaning The Blues
EXTD=YEAR: 1994
EXTT0=
EXTT1=
EXTT2=
EXTT3=
EXTT4=
EXTT5=
EXTT6=
EXTT7=
EXTT8=
EXTT9=
EXTT10=
EXTT11=
EXTT12=
EXTT13=
EXTT14=
EXTT15=
PLAYORDER=
